<!--?xml version="1.0" encoding="utf-8"?-->
<!-- Generator: Adobe Illustrator 18.1.1, SVG Export Plug-In . SVG Version: 6.00 Build 0)  -->

<svg version="1.1" id="_x32_" xmlns="http://www.w3.org/2000/svg" xmlns:xlink="http://www.w3.org/1999/xlink" x="0px" y="0px" viewBox="0 0 512 512" style="width: 256px; height: 256px; opacity: 1;" xml:space="preserve">
<style type="text/css">
	.st0{fill:#4B4B4B;}
</style>
<g>
	<polygon class="st0" points="48.002,48 128.002,48 128.002,0 0.002,0 0.002,128 48.002,128 	" style="fill: rgb(255, 0, 0);"></polygon>
	<polygon class="st0" points="383.998,0 383.998,48 463.998,48 463.998,128 511.998,128 511.998,0 	" style="fill: rgb(255, 0, 0);"></polygon>
	<polygon class="st0" points="463.998,464 383.998,464 383.998,512 511.998,512 511.998,384 463.998,384 	" style="fill: rgb(255, 0, 0);"></polygon>
	<polygon class="st0" points="48.002,384 0.002,384 0.002,512 128.002,512 128.002,464 48.002,464 	" style="fill: rgb(255, 0, 0);"></polygon>
	<path class="st0" d="M204.959,176.07c-0.484-1.461-1.461-2.43-3.156-2.43H171.24c-1.695,0-2.664,0.969-3.149,2.43l-56.758,160.086
		c-0.484,1.454,0,2.422,1.695,2.422h31.774c1.695,0,2.672-0.726,3.156-2.422l9.219-28.867h57.726l9.453,28.867
		c0.493,1.696,1.461,2.422,3.157,2.422h31.531c1.703,0,2.187-0.969,1.703-2.422L204.959,176.07z M167.116,276.969l18.679-57.726
		h0.726l18.68,57.726H167.116z" style="fill: rgb(255, 0, 0);"></path>
	<path class="st0" d="M381.037,242.039H321.85c-0.969,0-1.454-0.485-1.454-1.453v-34.688c0-0.969,0.485-1.453,1.454-1.453h71.07
		c1.454,0,2.422-0.969,2.422-2.422V176.07c0-1.461-0.969-2.43-2.422-2.43H287.17c-1.461,0-2.43,0.969-2.43,2.43v160.086
		c0,1.454,0.969,2.422,2.43,2.422h30.797c1.461,0,2.43-0.969,2.43-2.422v-62.094c0-0.976,0.485-1.461,1.454-1.461h59.187
		c1.453,0,2.422-0.969,2.422-2.422v-25.711C383.459,243.016,382.49,242.039,381.037,242.039z" style="fill: rgb(255, 0, 0);"></path>
</g>
</svg>
